<?xml version="1.0" encoding="UTF-8" standalone="no"?>
<!-- Created with Inkscape (http://www.inkscape.org/) -->

<svg
   version="1.1"
   id="svg2"
   width="6191.3926"
   height="1938.486"
   viewBox="0 0 6191.3926 1938.4859"
   sodipodi:docname="logo-hor2.svg"
   inkscape:version="1.1 (1:1.1+202105261517+ce6663b3b7)"
   inkscape:export-filename="/root/my-documents/downloads/movisoft/mic/logo/hor/logo-hor-low2.png"
   inkscape:export-xdpi="96"
   inkscape:export-ydpi="96"
   xmlns:inkscape="http://www.inkscape.org/namespaces/inkscape"
   xmlns:sodipodi="http://sodipodi.sourceforge.net/DTD/sodipodi-0.dtd"
   xmlns:xlink="http://www.w3.org/1999/xlink"
   xmlns="http://www.w3.org/2000/svg"
   xmlns:svg="http://www.w3.org/2000/svg">
  <defs
     id="defs6">
    <linearGradient
       inkscape:collect="always"
       id="linearGradient1354-3-6-7">
      <stop
         style="stop-color:#0d47a1;stop-opacity:1"
         offset="0"
         id="stop1350" />
      <stop
         style="stop-color:#1565c0;stop-opacity:1"
         offset="0.32327074"
         id="stop2132" />
      <stop
         style="stop-color:#1976d2;stop-opacity:1"
         offset="0.56652462"
         id="stop2198" />
      <stop
         style="stop-color:#1e88e5;stop-opacity:1"
         offset="0.81014895"
         id="stop2264" />
      <stop
         style="stop-color:#2196f3;stop-opacity:1"
         offset="1"
         id="stop1352" />
    </linearGradient>
    <inkscape:path-effect
       effect="skeletal"
       id="path-effect11765"
       is_visible="true"
       lpeversion="1"
       pattern="m 1244.0198,-158.07503 h 1600 v 14.155 h -1600 z m -40.904,0 h 37.4545 v 14.155 h -37.4545 z m -46.1439,0 h 34.244 v 14.155 h -34.244 z m -51.3838,0 h 31.0337 v 14.155 h -31.0337 z m -56.6236,0 h 27.8233 v 14.155 h -27.8233 z m -61.86347,0 h 24.61287 v 14.155 h -24.61287 z m -67.10332,0 h 21.40253 v 14.155 h -21.40253 z m -72.34314,0 h 18.19216 v 14.155 h -18.19216 z m -77.58297,0 h 14.98171 v 14.155 H 770.0716 Z m -82.82285,0 h 11.77134 v 14.155 h -11.77134 z m -88.06279,0 h 8.56099 v 14.155 h -8.56099 z m -93.30255,0 h 5.3506 v 14.155 h -5.3506 z m -98.54237,0 h 2.14021 v 14.155 h -2.14021 z"
       copytype="single_stretched"
       prop_scale="1"
       scale_y_rel="false"
       spacing="0"
       normal_offset="0"
       tang_offset="0"
       prop_units="false"
       vertical_pattern="false"
       hide_knot="false"
       fuse_tolerance="0" />
    <inkscape:path-effect
       effect="skeletal"
       id="path-effect1381"
       is_visible="true"
       lpeversion="1"
       pattern="m 1244.0198,-158.07503 h 1600 v 14.155 h -1600 z m -40.904,0 h 37.4545 v 14.155 h -37.4545 z m -46.1439,0 h 34.244 v 14.155 h -34.244 z m -51.3838,0 h 31.0337 v 14.155 h -31.0337 z m -56.6236,0 h 27.8233 v 14.155 h -27.8233 z m -61.86347,0 h 24.61287 v 14.155 h -24.61287 z m -67.10332,0 h 21.40253 v 14.155 h -21.40253 z m -72.34314,0 h 18.19216 v 14.155 h -18.19216 z m -77.58297,0 h 14.98171 v 14.155 H 770.0716 Z m -82.82285,0 h 11.77134 v 14.155 h -11.77134 z m -88.06279,0 h 8.56099 v 14.155 h -8.56099 z m -93.30255,0 h 5.3506 v 14.155 h -5.3506 z m -98.54237,0 h 2.14021 v 14.155 h -2.14021 z"
       copytype="single_stretched"
       prop_scale="1"
       scale_y_rel="false"
       spacing="0"
       normal_offset="0"
       tang_offset="0"
       prop_units="false"
       vertical_pattern="false"
       hide_knot="false"
       fuse_tolerance="0" />
    <inkscape:path-effect
       effect="skeletal"
       id="path-effect1375"
       is_visible="true"
       lpeversion="1"
       pattern="m 2023.6039,194.01656 v 0.0372 H 297.2779 v 0 -0.0372 z m -1727.86038,0 v 0.0372 0 h -16.65993 v 0 -0.0372 z m -21.95306,0 v 0.0372 h -15.23188 v 0 -0.0372 z m -24.28372,0 v 0.0372 0 h -13.80391 v 0 -0.0372 z m -26.61443,0 v 0.0372 h -12.37593 v 0 -0.0372 z m -28.94519,0 v 0.0372 0 h -10.94793 v 0 -0.0372 z m -31.27586,0 v 0.0372 0 h -9.51995 v 0 -0.0372 z m -33.60657,0 v 0.0372 h -8.09196 v 0 -0.0372 z m -35.937311,0 v 0.0372 h -6.663942 v 0 -0.0372 z m -38.267998,0 v 0.0372 0 h -5.235946 v 0 -0.0372 z m -40.598732,0 v 0.0372 h -3.80797 v 0 -0.0372 0 z m -42.929424,0 v 0.0372 h -2.379974 v 0 -0.0372 0 z m -45.260118,0 v 0.0372 h -0.951977 v 0 -0.0372 0 z"
       copytype="single_stretched"
       prop_scale="31.912966"
       scale_y_rel="false"
       spacing="0"
       normal_offset="0"
       tang_offset="0"
       prop_units="false"
       vertical_pattern="false"
       hide_knot="false"
       fuse_tolerance="0" />
    <inkscape:path-effect
       effect="skeletal"
       id="path-effect4546"
       is_visible="true"
       lpeversion="1"
       pattern="m 1252.4964,-68.118823 h 1600 v 14.155 h -1600 z m -40.904,0 h 37.4545 v 14.155 h -37.4545 z m -46.1439,0 h 34.244 v 14.155 h -34.244 z m -51.3838,0 h 31.0337 v 14.155 h -31.0337 z m -56.6236,0 h 27.8233 v 14.155 h -27.8233 z m -61.86349,0 h 24.61289 v 14.155 h -24.61289 z m -67.10332,0 h 21.40253 v 14.155 h -21.40253 z m -72.34314,0 h 18.19216 v 14.155 h -18.19216 z m -77.58297,0 h 14.98171 v 14.155 h -14.98171 z m -82.82285,0 h 11.77134 v 14.155 h -11.77134 z m -88.06279,0 h 8.56099 v 14.155 h -8.56099 z m -93.30255,0 h 5.3506 v 14.155 h -5.3506 z m -98.54237,0 h 2.14021 v 14.155 h -2.14021 z"
       copytype="single_stretched"
       prop_scale="1"
       scale_y_rel="false"
       spacing="0"
       normal_offset="0"
       tang_offset="0"
       prop_units="false"
       vertical_pattern="false"
       hide_knot="false"
       fuse_tolerance="0" />
    <inkscape:path-effect
       effect="skeletal"
       id="path-effect30844"
       is_visible="true"
       lpeversion="1"
       pattern="m 2023.6039,194.01656 v 0.0372 H 297.2779 v 0 -0.0372 z m -1727.86038,0 v 0.0372 0 h -16.65993 v 0 -0.0372 z m -21.95306,0 v 0.0372 h -15.23188 v 0 -0.0372 z m -24.28372,0 v 0.0372 0 h -13.80391 v 0 -0.0372 z m -26.61443,0 v 0.0372 h -12.37593 v 0 -0.0372 z m -28.94519,0 v 0.0372 0 h -10.94793 v 0 -0.0372 z m -31.27586,0 v 0.0372 0 h -9.51995 v 0 -0.0372 z m -33.60657,0 v 0.0372 h -8.09196 v 0 -0.0372 z m -35.937311,0 v 0.0372 h -6.663942 v 0 -0.0372 z m -38.267998,0 v 0.0372 0 h -5.235946 v 0 -0.0372 z m -40.598732,0 v 0.0372 h -3.80797 v 0 -0.0372 0 z m -42.929424,0 v 0.0372 h -2.379974 v 0 -0.0372 0 z m -45.260118,0 v 0.0372 h -0.951977 v 0 -0.0372 0 z"
       copytype="single_stretched"
       prop_scale="31.912966"
       scale_y_rel="false"
       spacing="0"
       normal_offset="0"
       tang_offset="0"
       prop_units="false"
       vertical_pattern="false"
       hide_knot="false"
       fuse_tolerance="0" />
    <inkscape:path-effect
       effect="skeletal"
       id="path-effect30840"
       is_visible="true"
       lpeversion="1"
       pattern="m 2024.6747,-121.66531 v -0.0372 H 298.34872 v 0 0.0372 z m -1727.86036,0 v -0.0372 0 h -16.65993 v 0 0.0372 z m -21.95306,0 v -0.0372 H 259.6294 v 0 0.0372 z m -24.28372,0 v -0.0372 0 h -13.80391 v 0 0.0372 z m -26.61443,0 v -0.0372 H 211.5872 v 0 0.0372 z m -28.94519,0 v -0.0372 0 h -10.94793 v 0 0.0372 z m -31.27586,0 v -0.0372 0 h -9.51995 v 0 0.0372 z m -33.60657,0 v -0.0372 h -8.09196 v 0 0.0372 z m -35.937306,0 v -0.0372 h -6.663942 v 0 0.0372 z m -38.267998,0 v -0.0372 0 H 50.69426 v 0 0.0372 z m -40.598732,0 v -0.0372 h -3.80797 v 0 0.0372 0 z m -42.929424,0 v -0.0372 h -2.379974 v 0 0.0372 0 z m -45.260118,0 v -0.0372 h -0.951977 v 0 0.0372 0 z"
       copytype="single_stretched"
       prop_scale="31.912966"
       scale_y_rel="false"
       spacing="0"
       normal_offset="0"
       tang_offset="0"
       prop_units="false"
       vertical_pattern="false"
       hide_knot="false"
       fuse_tolerance="0" />
    <inkscape:path-effect
       effect="skeletal"
       id="path-effect17697"
       is_visible="true"
       lpeversion="1"
       pattern="m 2008.7719,221.14417 v 0.0372 H 282.4459 v 0 -0.0372 z m -1727.86038,0 v 0.0372 0 h -16.65993 v 0 -0.0372 z m -21.95306,0 v 0.0372 h -15.23188 v 0 -0.0372 z m -24.28372,0 v 0.0372 0 h -13.80391 v 0 -0.0372 z m -26.61443,0 v 0.0372 h -12.37593 v 0 -0.0372 z m -28.94519,0 v 0.0372 0 h -10.94793 v 0 -0.0372 z m -31.27586,0 v 0.0372 0 h -9.51995 v 0 -0.0372 z m -33.60657,0 v 0.0372 h -8.09196 v 0 -0.0372 z m -35.937312,0 v 0.0372 h -6.663942 v 0 -0.0372 z m -38.267998,0 v 0.0372 0 h -5.235946 v 0 -0.0372 z m -40.59873245,0 v 0.0372 H -4.3793225 v 0 -0.0372 0 z m -42.92942355,0 v 0.0372 h -2.379974 v 0 -0.0372 0 z m -45.260118,0 v 0.0372 h -0.951977 v 0 -0.0372 0 z"
       copytype="single_stretched"
       prop_scale="31.912966"
       scale_y_rel="false"
       spacing="0"
       normal_offset="0"
       tang_offset="0"
       prop_units="false"
       vertical_pattern="false"
       hide_knot="false"
       fuse_tolerance="0" />
    <inkscape:path-effect
       effect="skeletal"
       id="path-effect10930"
       is_visible="true"
       lpeversion="1"
       pattern="m 2024.6747,-121.66531 v -0.0372 H 298.34872 v 0 0.0372 z m -1727.86036,0 v -0.0372 0 h -16.65993 v 0 0.0372 z m -21.95306,0 v -0.0372 H 259.6294 v 0 0.0372 z m -24.28372,0 v -0.0372 0 h -13.80391 v 0 0.0372 z m -26.61443,0 v -0.0372 H 211.5872 v 0 0.0372 z m -28.94519,0 v -0.0372 0 h -10.94793 v 0 0.0372 z m -31.27586,0 v -0.0372 0 h -9.51995 v 0 0.0372 z m -33.60657,0 v -0.0372 h -8.09196 v 0 0.0372 z m -35.937306,0 v -0.0372 h -6.663942 v 0 0.0372 z m -38.267998,0 v -0.0372 0 H 50.69426 v 0 0.0372 z m -40.598732,0 v -0.0372 h -3.80797 v 0 0.0372 0 z m -42.929424,0 v -0.0372 h -2.379974 v 0 0.0372 0 z m -45.260118,0 v -0.0372 h -0.951977 v 0 0.0372 0 z"
       copytype="single_stretched"
       prop_scale="31.912966"
       scale_y_rel="false"
       spacing="0"
       normal_offset="0"
       tang_offset="0"
       prop_units="false"
       vertical_pattern="false"
       hide_knot="false"
       fuse_tolerance="0" />
    <inkscape:path-effect
       effect="skeletal"
       id="path-effect6967"
       is_visible="true"
       lpeversion="1"
       pattern="m -2.64762e-5,-96.100404 v -0.121134 H 430.51956 v 5e-6 0.121129 z m 430.9022464762,0 v -0.121134 0 h 4.15473 v 0 0.121134 z m 5.47476,0 v -0.121134 h 3.7986 v 0 0.121134 z m 6.05599,0 v -0.121134 0 h 3.44249 v 0 0.121134 z m 6.63724,0 v -0.121134 h 3.08637 v 0 0.121134 z m 7.21849,0 v -0.121134 0 h 2.73025 v 0 0.121134 z m 7.79973,0 v -0.121134 0 h 2.37413 v 0 0.121134 z m 8.38097,0 v -0.121134 h 2.01801 v 0 0.121134 z m 8.96222,0 v -0.121134 h 1.66189 v 0 0.121134 z m 9.54346,0 v -0.121134 0 h 1.30577 v 0 0.121134 z m 10.12471,0 v -0.121134 h 0.94965 v 0 0.121134 0 z m 10.70595,0 v -0.121134 h 0.59353 v 0 0.121134 0 z m 11.28719,0 v -0.121134 h 0.23741 v 0 0.121134 0 z"
       copytype="single_stretched"
       prop_scale="-10.913459"
       scale_y_rel="false"
       spacing="0"
       normal_offset="0"
       tang_offset="0"
       prop_units="false"
       vertical_pattern="false"
       hide_knot="false"
       fuse_tolerance="0" />
    <inkscape:path-effect
       effect="skeletal"
       id="path-effect6240"
       is_visible="true"
       lpeversion="1"
       pattern="m 2063.5796,-317.32159 v -0.0374 H 337.25362 v 0 0.0374 z m -1727.86036,0 v -0.0374 0 h -16.65993 v 0 0.0374 z m -21.95306,0 v -0.0374 H 298.5343 v 0 0.0374 z m -24.28372,0 v -0.0374 0 h -13.80391 v 0 0.0374 z m -26.61443,0 v -0.0374 H 250.4921 v 0 0.0374 z m -28.94519,0 v -0.0374 0 h -10.94793 v 0 0.0374 z m -31.27586,0 v -0.0374 0 h -9.51995 v 0 0.0374 z m -33.60657,0 v -0.0374 h -8.09196 v 0 0.0374 z m -35.9373,0 v -0.0374 h -6.66394 v 0 0.0374 z m -38.267999,0 v -0.0374 0 h -5.235946 v 0 0.0374 z m -40.598732,0 v -0.0374 h -3.80797 v 0 0.0374 0 z m -42.929424,0 v -0.0374 H 8.9269807 v 0 0.0374 0 z m -45.260118,0 v -0.0374 h -0.951977 v 0 0.0374 0 z"
       copytype="single_stretched"
       prop_scale="-379.00718"
       scale_y_rel="false"
       spacing="0"
       normal_offset="0"
       tang_offset="0"
       prop_units="false"
       vertical_pattern="false"
       hide_knot="false"
       fuse_tolerance="0" />
    <inkscape:path-effect
       effect="skeletal"
       id="path-effect1034"
       is_visible="true"
       lpeversion="1"
       pattern="m -2.64762e-5,-96.100404 v -0.121134 H 430.51956 v 5e-6 0.121129 z m 430.9022464762,0 v -0.121134 0 h 4.15473 v 0 0.121134 z m 5.47476,0 v -0.121134 h 3.7986 v 0 0.121134 z m 6.05599,0 v -0.121134 0 h 3.44249 v 0 0.121134 z m 6.63724,0 v -0.121134 h 3.08637 v 0 0.121134 z m 7.21849,0 v -0.121134 0 h 2.73025 v 0 0.121134 z m 7.79973,0 v -0.121134 0 h 2.37413 v 0 0.121134 z m 8.38097,0 v -0.121134 h 2.01801 v 0 0.121134 z m 8.96222,0 v -0.121134 h 1.66189 v 0 0.121134 z m 9.54346,0 v -0.121134 0 h 1.30577 v 0 0.121134 z m 10.12471,0 v -0.121134 h 0.94965 v 0 0.121134 0 z m 10.70595,0 v -0.121134 h 0.59353 v 0 0.121134 0 z m 11.28719,0 v -0.121134 h 0.23741 v 0 0.121134 0 z"
       copytype="single_stretched"
       prop_scale="-11.038868"
       scale_y_rel="false"
       spacing="0"
       normal_offset="0"
       tang_offset="0"
       prop_units="false"
       vertical_pattern="false"
       hide_knot="false"
       fuse_tolerance="0" />
    <linearGradient
       inkscape:collect="always"
       xlink:href="#linearGradient1354-3-6-7"
       id="linearGradient1356"
       x1="4017.9204"
       y1="-1403.4235"
       x2="5496.0093"
       y2="-2628.9314"
       gradientUnits="userSpaceOnUse"
       gradientTransform="matrix(0.97836022,0,0,0.97836022,-3606.5481,2904.191)" />
  </defs>
  <sodipodi:namedview
     id="namedview4"
     pagecolor="#ffffff"
     bordercolor="#666666"
     borderopacity="1.0"
     inkscape:pageshadow="2"
     inkscape:pageopacity="0.0"
     inkscape:pagecheckerboard="0"
     showgrid="false"
     inkscape:snap-global="true"
     showguides="true"
     inkscape:guide-bbox="true"
     inkscape:snap-bbox="true"
     inkscape:object-paths="true"
     inkscape:snap-object-midpoints="true"
     inkscape:snap-center="true"
     inkscape:snap-page="true"
     inkscape:snap-grids="false"
     inkscape:zoom="0.080000001"
     inkscape:cx="3075"
     inkscape:cy="918.74999"
     inkscape:window-width="1364"
     inkscape:window-height="707"
     inkscape:window-x="0"
     inkscape:window-y="0"
     inkscape:window-maximized="1"
     inkscape:current-layer="svg2"
     inkscape:bbox-paths="true"
     inkscape:bbox-nodes="true"
     inkscape:snap-intersection-paths="true"
     inkscape:snap-others="true"
     fit-margin-top="0"
     fit-margin-left="0"
     fit-margin-right="0"
     fit-margin-bottom="0"
     inkscape:snap-nodes="true">
    <sodipodi:guide
       position="2878.5328,1281.3827"
       orientation="0,-1"
       id="guide57508" />
    <sodipodi:guide
       position="2878.5328,640.7121"
       orientation="0,-1"
       id="guide57510" />
    <sodipodi:guide
       position="4046.3957,969.24294"
       orientation="0,-1"
       id="guide57512" />
    <sodipodi:guide
       position="5496.9684,1281.3827"
       orientation="1,0"
       id="guide57514" />
    <sodipodi:guide
       position="5191.8763,1130.8245"
       orientation="1,0"
       id="guide57516" />
    <sodipodi:guide
       position="2162.3742,1281.3827"
       orientation="1,0"
       id="guide57948" />
    <sodipodi:guide
       position="1857.2822,2175.7036"
       orientation="1,0"
       id="guide57950" />
    <sodipodi:guide
       position="1611.0156,1633.3939"
       orientation="0,-1"
       id="guide57952" />
    <sodipodi:guide
       position="305.092,1132.7211"
       orientation="1,0"
       id="guide58034" />
    <sodipodi:guide
       position="305.09201,1938.4859"
       orientation="0,-1"
       id="guide58036" />
    <sodipodi:guide
       position="2.3849368e-06,1938.4859"
       orientation="1,0"
       id="guide58038" />
    <sodipodi:guide
       position="796.76784,305.09198"
       orientation="0,-1"
       id="guide58040" />
    <sodipodi:guide
       position="305.09201,-1.2123813e-05"
       orientation="0,-1"
       id="guide58042" />
    <sodipodi:guide
       position="5886.3002,673.9595"
       orientation="1,0"
       id="guide58044" />
    <sodipodi:guide
       position="6191.3923,1586.4747"
       orientation="1,0"
       id="guide58046" />
  </sodipodi:namedview>
  <path
     id="bg"
     style="fill:#ffffff;stroke-width:13.0667;stroke-linecap:round;stroke-linejoin:round;paint-order:fill markers stroke"
     d="M 0,0 6191.3924,3.4381493e-5 6191.3924,1938.486 H 0 Z"
     sodipodi:nodetypes="ccccc" />
  <g
     id="logotipo"
     transform="matrix(0.99997326,0,0,0.99997326,-210.8609,-649.18165)">
    <g
       aria-label="MoviSoft"
       transform="matrix(1.015308,0,0,0.98492281,0.67258426,419.08631)"
       id="text2809"
       style="font-weight:bold;font-size:899.693px;line-height:0.85;font-family:Lato;-inkscape-font-specification:'Lato Bold';letter-spacing:0px;stroke-width:1.03811">
      <path
         d="m 3042.2128,900.81384 v 650.47806 h -106.6136 v -420.1567 q 0,-25.1914 2.6991,-54.4314 l -196.5829,369.324 q -13.9453,26.5409 -42.7355,26.5409 h -17.0941 q -28.7902,0 -42.7354,-26.5409 l -198.8322,-370.6735 q 1.3495,14.8449 2.2492,29.24 0.8997,14.3951 0.8997,26.5409 v 420.1567 H 2336.8535 V 900.81384 h 91.3188 q 8.0973,0 13.9453,0.44984 5.848,0.44985 10.3465,2.24924 4.9483,1.79938 8.547,5.848 4.0487,4.04862 7.6474,10.79632 l 194.7836,361.22676 q 7.6474,14.3951 13.9452,29.6898 6.7477,15.2948 13.0456,31.4893 6.2978,-16.6443 13.0455,-31.9391 6.7477,-15.7446 14.3951,-30.1397 l 192.0844,-360.32706 q 3.5988,-6.7477 7.6474,-10.79632 4.0487,-4.04862 8.5471,-5.848 4.9483,-1.79939 10.7963,-2.24924 5.848,-0.44984 13.9453,-0.44984 z"
         id="path25142"
         style="fill:#1a1a1a;fill-opacity:1" />
      <path
         d="m 3359.8032,1082.5518 q 51.2825,0 93.1183,16.6443 42.2855,16.6444 71.9754,47.2339 30.1397,30.5896 46.3342,74.6745 16.1945,44.085 16.1945,98.5164 0,54.8813 -16.1945,98.9663 -16.1945,44.0849 -46.3342,75.1243 -29.6899,31.0394 -71.9754,47.6837 -41.8358,16.6444 -93.1183,16.6444 -51.7323,0 -94.0179,-16.6444 -42.2856,-16.6443 -72.4253,-47.6837 -29.6898,-31.0394 -46.3342,-75.1243 -16.1944,-44.085 -16.1944,-98.9663 0,-54.4314 16.1944,-98.5164 16.6444,-44.0849 46.3342,-74.6745 30.1397,-30.5895 72.4253,-47.2339 42.2856,-16.6443 94.0179,-16.6443 z m 0,390.0169 q 57.5804,0 85.021,-38.6868 27.8905,-38.6868 27.8905,-113.3613 0,-74.6745 -27.8905,-113.8111 -27.4406,-39.1367 -85.021,-39.1367 -58.48,0 -86.8203,39.5865 -27.8905,39.1366 -27.8905,113.3613 0,74.2247 27.8905,113.3613 28.3403,38.6868 86.8203,38.6868 z"
         id="path25144"
         style="fill:#1a1a1a;fill-opacity:1" />
      <path
         d="m 4074.158,1089.7494 -183.0875,461.5425 h -100.7657 l -183.0875,-461.5425 h 91.7687 q 12.5957,0 20.6929,5.848 8.5471,5.848 11.2462,14.8449 l 89.0696,246.5159 q 7.1976,21.5926 12.5957,42.2856 5.3982,20.6929 9.4468,41.3858 4.4985,-20.6929 9.8966,-41.3858 5.3982,-20.693 13.0456,-42.2856 l 90.869,-246.5159 q 3.1489,-8.9969 11.2461,-14.8449 8.0973,-5.848 19.3434,-5.848 z"
         id="path25146"
         style="fill:#1a1a1a;fill-opacity:1" />
      <path
         d="m 4723.2856,1019.1235 q -5.3982,9.4467 -11.696,13.9452 -5.848,4.0486 -14.8449,4.0486 -9.4468,0 -20.693,-6.7477 -10.7963,-7.1975 -26.0911,-15.7446 -15.2948,-8.5471 -35.9877,-15.29478 -20.2431,-7.19755 -48.1336,-7.19755 -25.1914,0 -44.0849,6.29786 -18.8936,5.84797 -31.9391,16.64427 -12.5957,10.7964 -18.8936,26.0911 -6.2978,14.845 -6.2978,32.8388 0,22.9422 12.5957,38.237 13.0455,15.2948 34.1883,26.0911 21.1428,10.7963 48.1336,19.3434 26.9908,8.5471 55.3311,18.4437 28.3403,9.4468 55.3311,22.4923 26.9908,12.5957 48.1336,32.389 21.1428,19.3434 33.7385,47.6837 13.0455,28.3403 13.0455,68.8265 0,44.085 -15.2948,82.7718 -14.8449,38.2369 -44.0849,67.0271 -28.7902,28.3403 -70.6259,44.9846 -41.8357,16.1945 -95.8173,16.1945 -31.0394,0 -61.1791,-6.2978 -30.1398,-5.848 -58.0302,-17.0942 -27.4407,-11.2462 -51.7324,-26.9908 -24.2917,-15.7446 -43.1852,-35.088 l 35.5378,-58.0302 q 4.4985,-6.2979 11.696,-10.3465 7.1976,-4.4985 15.2948,-4.4985 11.2462,0 24.2917,9.4468 13.0456,8.997 31.0394,20.2431 17.9939,11.2462 41.8358,20.693 24.2917,8.9969 58.0302,8.9969 51.7323,0 80.0726,-24.2917 28.3404,-24.7416 28.3404,-70.6259 0,-25.6413 -13.0456,-41.8358 -12.5957,-16.1944 -33.7385,-26.9907 -21.1428,-11.2462 -48.1335,-18.8936 -26.9908,-7.6474 -54.8813,-16.6443 -27.8905,-8.9969 -54.8813,-21.5926 -26.9908,-12.5957 -48.1336,-32.8388 -21.1428,-20.2431 -34.1883,-50.3828 -12.5957,-30.5896 -12.5957,-75.1244 0,-35.5379 13.9452,-69.2764 14.3951,-33.73846 41.3859,-59.82956 26.9908,-26.09109 66.5773,-41.83572 39.5865,-15.74463 90.869,-15.74463 57.5803,0 106.1638,17.99386 48.5834,17.99386 82.7717,50.38281 z"
         id="path25150"
         style="fill:#0d47a1" />
      <path
         d="m 5055.7195,1082.5518 q 51.2825,0 93.1182,16.6443 42.2856,16.6444 71.9755,47.2339 30.1397,30.5896 46.3341,74.6745 16.1945,44.085 16.1945,98.5164 0,54.8813 -16.1945,98.9663 -16.1944,44.0849 -46.3341,75.1243 -29.6899,31.0394 -71.9755,47.6837 -41.8357,16.6444 -93.1182,16.6444 -51.7324,0 -94.0179,-16.6444 -42.2856,-16.6443 -72.4253,-47.6837 -29.6899,-31.0394 -46.3342,-75.1243 -16.1945,-44.085 -16.1945,-98.9663 0,-54.4314 16.1945,-98.5164 16.6443,-44.0849 46.3342,-74.6745 30.1397,-30.5895 72.4253,-47.2339 42.2855,-16.6443 94.0179,-16.6443 z m 0,390.0169 q 57.5803,0 85.021,-38.6868 27.8905,-38.6868 27.8905,-113.3613 0,-74.6745 -27.8905,-113.8111 -27.4407,-39.1367 -85.021,-39.1367 -58.4801,0 -86.8204,39.5865 -27.8905,39.1366 -27.8905,113.3613 0,74.2247 27.8905,113.3613 28.3403,38.6868 86.8204,38.6868 z"
         id="path25152"
         style="fill:#1565c0" />
      <path
         d="m 5692.0879,1093.798 h 71.9754 l 23.8419,-126.40688 c 1.4995,-5.99795 4.3485,-10.64637 8.547,-13.94524 4.1986,-3.29888 9.5968,-4.94832 16.1945,-4.94832 h 57.5804 V 1093.798 h 123.2579 v 79.173 h -123.2579 v 250.1146 c 0,14.3951 3.5988,25.6413 10.7963,33.7385 7.1975,8.0973 16.7943,12.1459 28.7902,12.1459 6.8976,0 12.5956,-0.7498 17.0941,-2.2493 4.7984,-1.7994 8.847,-3.5988 12.1459,-5.3981 3.5987,-1.7994 6.7477,-3.4488 9.4468,-4.9483 2.6991,-1.7994 5.3981,-2.6991 8.0972,-2.6991 3.2989,0 5.9979,0.8997 8.0972,2.6991 2.0993,1.4995 4.3486,3.8986 6.7477,7.1975 l 33.2887,53.9816 c -16.1945,13.4954 -34.7881,23.6919 -55.781,30.5895 -20.6929,6.8977 -42.2856,10.3465 -64.7779,10.3465 -40.1863,0 -71.0757,-11.2462 -92.6684,-33.7385 -21.5926,-22.7922 -32.3889,-54.1315 -32.3889,-94.0179 v -257.762 h -67.0271 z"
         id="path26154"
         sodipodi:nodetypes="cccsscccccssscccsccccscsccc"
         style="fill:#1e88e5" />
      <path
         d="m 5621.1751,1172.971 h -120.5589 v 378.3209 h -111.1121 v -377.8711 l -40.0363,-6.2978 c -8.6971,-1.7994 -15.7447,-4.7984 -21.1428,-8.997 -5.0983,-4.4985 -7.6474,-10.7963 -7.6474,-18.8935 v -45.4345 h 68.8265 v -34.1884 c 0,-26.3909 3.8987,-50.0828 11.696,-71.0757 8.0973,-20.99283 19.4934,-38.83674 34.1883,-53.53173 14.9949,-14.69499 33.1388,-25.94115 54.4315,-33.73849 21.2927,-7.79734 45.2845,-11.69601 71.9754,-11.69601 21.2927,0 41.086,2.84903 59.3798,8.54709 l -0.1089,55.18269 c 0.1706,7.71151 -8.5375,14.35058 -14.2862,16.79275 -3.2989,1.19959 -7.1975,2.09928 -11.696,2.69908 -4.4985,0.29989 -9.2968,0.44984 -14.3951,0.44984 -13.1955,0 -25.0415,1.49949 -35.5379,4.49847 -10.1965,2.69908 -18.8936,7.64739 -26.0911,14.84493 -7.1975,6.89765 -12.7456,16.19448 -16.6443,27.89048 -3.5988,11.3961 -5.3982,25.6413 -5.3982,42.7354 v 30.5896 h 124.1577 z"
         id="path25154"
         sodipodi:nodetypes="cccccccsccsccssccccscccsccc"
         style="fill:#1976d2" />
    </g>
    <path
       id="path25472"
       style="fill:#1a1a1a;fill-opacity:1;stroke-width:6.0874;stroke-linecap:round;stroke-linejoin:round;paint-order:fill markers stroke"
       d="m 4327.3184,1359.9273 c 0,38.66 -31.34,70 -70,70 -38.6599,0 -70,-31.34 -70,-70 0,-38.6599 31.3401,-70 70,-70 38.66,0 70,31.3401 70,70 z m -13.3651,132.4781 v 454.5837 h -113.2697 v -454.5837 z" />
  </g>
  <path
     id="path1248"
     style="fill:url(#linearGradient1356);fill-opacity:1;stroke:none;stroke-width:4.86685;stroke-linecap:round;stroke-linejoin:round;stroke-opacity:1;paint-order:fill markers stroke"
     d="m 1435.8752,493.16425 c -50.569,-7.13039 -109.0809,-5.90196 -188.8083,20.47023 193.4997,-21.87623 185.936,120.85713 127.8768,226.89543 46.7109,-108.54975 21.5971,-185.93295 -78.7757,-190.61382 -65.7803,-3.06775 -159.4233,25.99669 -251.9442,83.57417 60.3418,-27.91389 107.6482,-41.05297 146.3948,-39.2434 68.5201,3.19992 94.1425,46.8842 78.4927,112.16567 11.2769,-53.05804 -10.2398,-82.78424 -67.3892,-90.96519 -56.9715,-4.90736 -167.242,23.74519 -290.06186,129.6071 100.59956,-69.95286 169.46166,-90.16754 208.98946,-88.26414 31.6725,1.52507 49.7655,15.68302 54.734,38.63065 -5.4154,-17.14038 -20.4924,-27.624 -45.5423,-28.83051 -59.9462,-2.88646 -209.88626,71.12424 -287.00256,168.58003 89.5924,-86.83305 168.56776,-122.56609 217.84496,-124.32195 l 0.7265,0.93149 c -50.9279,2.19955 -140.53116,58.90106 -195.89216,121.32656 -55.361,62.4251 -63.1214,112.9905 -15.3686,115.2899 47.753,2.2995 129.4058,-50.8523 184.56626,-108.0863 49.2749,-53.9459 70.7868,-92.81746 60.7527,-120.05491 19.5413,24.47299 -2.7587,76.89851 -41.7482,121.04011 -67.35506,76.2555 -144.55866,126.8644 -218.87436,144.6387 68.6292,11.5686 187.57806,-64.0228 271.20886,-158.8193 22.3641,-26.7421 38.9694,-51.3796 65.4762,-95.00013 -4.772,28.69966 -28.761,70.67063 -56.0366,105.92003 -84.766,109.546 -244.73876,216.23243 -345.08173,213.68353 -10.72824,-0.5167 -19.87004,-2.5068 -27.50027,-5.7731 10.79884,17.4775 29.70227,30.295 60.99644,29.4672 100.6643,-2.6628 255.18336,-95.19673 372.67776,-225.42673 28.9099,-33.4263 53.9684,-65.4387 68.6377,-94.56797 -17.3074,35.69717 -40.655,75.22807 -76.4248,116.58597 -129.764,150.03643 -329.75036,271.10183 -448.09882,265.57513 -46.95992,-2.1928 -73.75182,-23.422 -80.97153,-57.5462 -10.33814,68.1564 21.55719,112.8555 97.07231,116.377 141.00798,6.576 384.21864,-131.5919 538.68494,-310.11523 27.5032,-31.7863 53.7212,-63.394 70.4495,-93.2154 -25.5596,43.1996 -49.0268,79.77 -88.0047,123.5311 -181.8218,204.13383 -446.56176,345.63723 -594.25864,326.69583 -93.49573,-11.9901 -138.35628,-92.0383 -69.19062,-225.2683 -145.02957,202.3567 -115.57291,367.8547 25.41516,380.9217 83.80321,7.767 334.60534,-77.105 541.8849,-226.8508 -252.56976,200.175 -502.19684,273.1773 -597.99562,260.3307 C 399.41316,1410.3964 380.8657,1251.728 551.10292,990.30267 308.92795,1290.7105 266.1374,1576.227 476.2881,1633.394 266.68685,1601.2931 257.0141,1393.4799 406.56448,1134.7469 455.12108,1050.7407 520.56918,963.54387 599.17191,878.13477 757.91731,705.64345 961.08524,549.43757 1163.131,446.4951 1365.1766,343.55223 1573.249,284.68547 1700.2389,311.594 c 126.9892,26.90823 174.3484,139.34501 151.5108,278.3832 -23.2009,141.24939 -112.8697,308.76687 -276.2079,491.0696 -278.2618,317.6729 -688.45016,543.8517 -958.796,552.3312 247.80704,-37.8591 583.689,-236.3368 814.8733,-499.3852 220.7375,-251.71393 320.1002,-550.36614 167.6712,-646.67513 30.4278,43.61099 33.9043,257.14564 -269.9474,540.41933 302.4073,-325.38965 240.5976,-515.66897 106.5323,-534.57275 z"
     sodipodi:nodetypes="sccscscccscscccssccscccsccsccsscsscsscscsccssssscccccs" />
</svg>
