<?xml version="1.0" encoding="UTF-8" standalone="no"?>
<!-- Created with Inkscape (http://www.inkscape.org/) -->

<svg
   version="1.1"
   id="svg2"
   width="4700.8525"
   height="5461.0161"
   viewBox="0 0 4700.8526 5461.0159"
   sodipodi:docname="logo-vert.-slogan.svg"
   inkscape:version="1.1 (1:1.1+202105261517+ce6663b3b7)"
   inkscape:export-filename="/root/my-documents/downloads/movisoft/mic/logo/slogan/logo-vert-slogan-low.png"
   inkscape:export-xdpi="96"
   inkscape:export-ydpi="96"
   xmlns:inkscape="http://www.inkscape.org/namespaces/inkscape"
   xmlns:sodipodi="http://sodipodi.sourceforge.net/DTD/sodipodi-0.dtd"
   xmlns:xlink="http://www.w3.org/1999/xlink"
   xmlns="http://www.w3.org/2000/svg"
   xmlns:svg="http://www.w3.org/2000/svg">
  <defs
     id="defs6">
    <inkscape:path-effect
       effect="skeletal"
       id="path-effect11765"
       is_visible="true"
       lpeversion="1"
       pattern="m 1244.0198,-158.07503 h 1600 v 14.155 h -1600 z m -40.904,0 h 37.4545 v 14.155 h -37.4545 z m -46.1439,0 h 34.244 v 14.155 h -34.244 z m -51.3838,0 h 31.0337 v 14.155 h -31.0337 z m -56.6236,0 h 27.8233 v 14.155 h -27.8233 z m -61.86347,0 h 24.61287 v 14.155 h -24.61287 z m -67.10332,0 h 21.40253 v 14.155 h -21.40253 z m -72.34314,0 h 18.19216 v 14.155 h -18.19216 z m -77.58297,0 h 14.98171 v 14.155 H 770.0716 Z m -82.82285,0 h 11.77134 v 14.155 h -11.77134 z m -88.06279,0 h 8.56099 v 14.155 h -8.56099 z m -93.30255,0 h 5.3506 v 14.155 h -5.3506 z m -98.54237,0 h 2.14021 v 14.155 h -2.14021 z"
       copytype="single_stretched"
       prop_scale="1"
       scale_y_rel="false"
       spacing="0"
       normal_offset="0"
       tang_offset="0"
       prop_units="false"
       vertical_pattern="false"
       hide_knot="false"
       fuse_tolerance="0" />
    <inkscape:path-effect
       effect="skeletal"
       id="path-effect1381"
       is_visible="true"
       lpeversion="1"
       pattern="m 1244.0198,-158.07503 h 1600 v 14.155 h -1600 z m -40.904,0 h 37.4545 v 14.155 h -37.4545 z m -46.1439,0 h 34.244 v 14.155 h -34.244 z m -51.3838,0 h 31.0337 v 14.155 h -31.0337 z m -56.6236,0 h 27.8233 v 14.155 h -27.8233 z m -61.86347,0 h 24.61287 v 14.155 h -24.61287 z m -67.10332,0 h 21.40253 v 14.155 h -21.40253 z m -72.34314,0 h 18.19216 v 14.155 h -18.19216 z m -77.58297,0 h 14.98171 v 14.155 H 770.0716 Z m -82.82285,0 h 11.77134 v 14.155 h -11.77134 z m -88.06279,0 h 8.56099 v 14.155 h -8.56099 z m -93.30255,0 h 5.3506 v 14.155 h -5.3506 z m -98.54237,0 h 2.14021 v 14.155 h -2.14021 z"
       copytype="single_stretched"
       prop_scale="1"
       scale_y_rel="false"
       spacing="0"
       normal_offset="0"
       tang_offset="0"
       prop_units="false"
       vertical_pattern="false"
       hide_knot="false"
       fuse_tolerance="0" />
    <inkscape:path-effect
       effect="skeletal"
       id="path-effect1375"
       is_visible="true"
       lpeversion="1"
       pattern="m 2023.6039,194.01656 v 0.0372 H 297.2779 v 0 -0.0372 z m -1727.86038,0 v 0.0372 0 h -16.65993 v 0 -0.0372 z m -21.95306,0 v 0.0372 h -15.23188 v 0 -0.0372 z m -24.28372,0 v 0.0372 0 h -13.80391 v 0 -0.0372 z m -26.61443,0 v 0.0372 h -12.37593 v 0 -0.0372 z m -28.94519,0 v 0.0372 0 h -10.94793 v 0 -0.0372 z m -31.27586,0 v 0.0372 0 h -9.51995 v 0 -0.0372 z m -33.60657,0 v 0.0372 h -8.09196 v 0 -0.0372 z m -35.937311,0 v 0.0372 h -6.663942 v 0 -0.0372 z m -38.267998,0 v 0.0372 0 h -5.235946 v 0 -0.0372 z m -40.598732,0 v 0.0372 h -3.80797 v 0 -0.0372 0 z m -42.929424,0 v 0.0372 h -2.379974 v 0 -0.0372 0 z m -45.260118,0 v 0.0372 h -0.951977 v 0 -0.0372 0 z"
       copytype="single_stretched"
       prop_scale="31.912966"
       scale_y_rel="false"
       spacing="0"
       normal_offset="0"
       tang_offset="0"
       prop_units="false"
       vertical_pattern="false"
       hide_knot="false"
       fuse_tolerance="0" />
    <inkscape:path-effect
       effect="skeletal"
       id="path-effect4546"
       is_visible="true"
       lpeversion="1"
       pattern="m 1252.4964,-68.118823 h 1600 v 14.155 h -1600 z m -40.904,0 h 37.4545 v 14.155 h -37.4545 z m -46.1439,0 h 34.244 v 14.155 h -34.244 z m -51.3838,0 h 31.0337 v 14.155 h -31.0337 z m -56.6236,0 h 27.8233 v 14.155 h -27.8233 z m -61.86349,0 h 24.61289 v 14.155 h -24.61289 z m -67.10332,0 h 21.40253 v 14.155 h -21.40253 z m -72.34314,0 h 18.19216 v 14.155 h -18.19216 z m -77.58297,0 h 14.98171 v 14.155 h -14.98171 z m -82.82285,0 h 11.77134 v 14.155 h -11.77134 z m -88.06279,0 h 8.56099 v 14.155 h -8.56099 z m -93.30255,0 h 5.3506 v 14.155 h -5.3506 z m -98.54237,0 h 2.14021 v 14.155 h -2.14021 z"
       copytype="single_stretched"
       prop_scale="1"
       scale_y_rel="false"
       spacing="0"
       normal_offset="0"
       tang_offset="0"
       prop_units="false"
       vertical_pattern="false"
       hide_knot="false"
       fuse_tolerance="0" />
    <inkscape:path-effect
       effect="skeletal"
       id="path-effect30844"
       is_visible="true"
       lpeversion="1"
       pattern="m 2023.6039,194.01656 v 0.0372 H 297.2779 v 0 -0.0372 z m -1727.86038,0 v 0.0372 0 h -16.65993 v 0 -0.0372 z m -21.95306,0 v 0.0372 h -15.23188 v 0 -0.0372 z m -24.28372,0 v 0.0372 0 h -13.80391 v 0 -0.0372 z m -26.61443,0 v 0.0372 h -12.37593 v 0 -0.0372 z m -28.94519,0 v 0.0372 0 h -10.94793 v 0 -0.0372 z m -31.27586,0 v 0.0372 0 h -9.51995 v 0 -0.0372 z m -33.60657,0 v 0.0372 h -8.09196 v 0 -0.0372 z m -35.937311,0 v 0.0372 h -6.663942 v 0 -0.0372 z m -38.267998,0 v 0.0372 0 h -5.235946 v 0 -0.0372 z m -40.598732,0 v 0.0372 h -3.80797 v 0 -0.0372 0 z m -42.929424,0 v 0.0372 h -2.379974 v 0 -0.0372 0 z m -45.260118,0 v 0.0372 h -0.951977 v 0 -0.0372 0 z"
       copytype="single_stretched"
       prop_scale="31.912966"
       scale_y_rel="false"
       spacing="0"
       normal_offset="0"
       tang_offset="0"
       prop_units="false"
       vertical_pattern="false"
       hide_knot="false"
       fuse_tolerance="0" />
    <inkscape:path-effect
       effect="skeletal"
       id="path-effect30840"
       is_visible="true"
       lpeversion="1"
       pattern="m 2024.6747,-121.66531 v -0.0372 H 298.34872 v 0 0.0372 z m -1727.86036,0 v -0.0372 0 h -16.65993 v 0 0.0372 z m -21.95306,0 v -0.0372 H 259.6294 v 0 0.0372 z m -24.28372,0 v -0.0372 0 h -13.80391 v 0 0.0372 z m -26.61443,0 v -0.0372 H 211.5872 v 0 0.0372 z m -28.94519,0 v -0.0372 0 h -10.94793 v 0 0.0372 z m -31.27586,0 v -0.0372 0 h -9.51995 v 0 0.0372 z m -33.60657,0 v -0.0372 h -8.09196 v 0 0.0372 z m -35.937306,0 v -0.0372 h -6.663942 v 0 0.0372 z m -38.267998,0 v -0.0372 0 H 50.69426 v 0 0.0372 z m -40.598732,0 v -0.0372 h -3.80797 v 0 0.0372 0 z m -42.929424,0 v -0.0372 h -2.379974 v 0 0.0372 0 z m -45.260118,0 v -0.0372 h -0.951977 v 0 0.0372 0 z"
       copytype="single_stretched"
       prop_scale="31.912966"
       scale_y_rel="false"
       spacing="0"
       normal_offset="0"
       tang_offset="0"
       prop_units="false"
       vertical_pattern="false"
       hide_knot="false"
       fuse_tolerance="0" />
    <inkscape:path-effect
       effect="skeletal"
       id="path-effect17697"
       is_visible="true"
       lpeversion="1"
       pattern="m 2008.7719,221.14417 v 0.0372 H 282.4459 v 0 -0.0372 z m -1727.86038,0 v 0.0372 0 h -16.65993 v 0 -0.0372 z m -21.95306,0 v 0.0372 h -15.23188 v 0 -0.0372 z m -24.28372,0 v 0.0372 0 h -13.80391 v 0 -0.0372 z m -26.61443,0 v 0.0372 h -12.37593 v 0 -0.0372 z m -28.94519,0 v 0.0372 0 h -10.94793 v 0 -0.0372 z m -31.27586,0 v 0.0372 0 h -9.51995 v 0 -0.0372 z m -33.60657,0 v 0.0372 h -8.09196 v 0 -0.0372 z m -35.937312,0 v 0.0372 h -6.663942 v 0 -0.0372 z m -38.267998,0 v 0.0372 0 h -5.235946 v 0 -0.0372 z m -40.59873245,0 v 0.0372 H -4.3793225 v 0 -0.0372 0 z m -42.92942355,0 v 0.0372 h -2.379974 v 0 -0.0372 0 z m -45.260118,0 v 0.0372 h -0.951977 v 0 -0.0372 0 z"
       copytype="single_stretched"
       prop_scale="31.912966"
       scale_y_rel="false"
       spacing="0"
       normal_offset="0"
       tang_offset="0"
       prop_units="false"
       vertical_pattern="false"
       hide_knot="false"
       fuse_tolerance="0" />
    <inkscape:path-effect
       effect="skeletal"
       id="path-effect10930"
       is_visible="true"
       lpeversion="1"
       pattern="m 2024.6747,-121.66531 v -0.0372 H 298.34872 v 0 0.0372 z m -1727.86036,0 v -0.0372 0 h -16.65993 v 0 0.0372 z m -21.95306,0 v -0.0372 H 259.6294 v 0 0.0372 z m -24.28372,0 v -0.0372 0 h -13.80391 v 0 0.0372 z m -26.61443,0 v -0.0372 H 211.5872 v 0 0.0372 z m -28.94519,0 v -0.0372 0 h -10.94793 v 0 0.0372 z m -31.27586,0 v -0.0372 0 h -9.51995 v 0 0.0372 z m -33.60657,0 v -0.0372 h -8.09196 v 0 0.0372 z m -35.937306,0 v -0.0372 h -6.663942 v 0 0.0372 z m -38.267998,0 v -0.0372 0 H 50.69426 v 0 0.0372 z m -40.598732,0 v -0.0372 h -3.80797 v 0 0.0372 0 z m -42.929424,0 v -0.0372 h -2.379974 v 0 0.0372 0 z m -45.260118,0 v -0.0372 h -0.951977 v 0 0.0372 0 z"
       copytype="single_stretched"
       prop_scale="31.912966"
       scale_y_rel="false"
       spacing="0"
       normal_offset="0"
       tang_offset="0"
       prop_units="false"
       vertical_pattern="false"
       hide_knot="false"
       fuse_tolerance="0" />
    <inkscape:path-effect
       effect="skeletal"
       id="path-effect6967"
       is_visible="true"
       lpeversion="1"
       pattern="m -2.64762e-5,-96.100404 v -0.121134 H 430.51956 v 5e-6 0.121129 z m 430.9022464762,0 v -0.121134 0 h 4.15473 v 0 0.121134 z m 5.47476,0 v -0.121134 h 3.7986 v 0 0.121134 z m 6.05599,0 v -0.121134 0 h 3.44249 v 0 0.121134 z m 6.63724,0 v -0.121134 h 3.08637 v 0 0.121134 z m 7.21849,0 v -0.121134 0 h 2.73025 v 0 0.121134 z m 7.79973,0 v -0.121134 0 h 2.37413 v 0 0.121134 z m 8.38097,0 v -0.121134 h 2.01801 v 0 0.121134 z m 8.96222,0 v -0.121134 h 1.66189 v 0 0.121134 z m 9.54346,0 v -0.121134 0 h 1.30577 v 0 0.121134 z m 10.12471,0 v -0.121134 h 0.94965 v 0 0.121134 0 z m 10.70595,0 v -0.121134 h 0.59353 v 0 0.121134 0 z m 11.28719,0 v -0.121134 h 0.23741 v 0 0.121134 0 z"
       copytype="single_stretched"
       prop_scale="-10.913459"
       scale_y_rel="false"
       spacing="0"
       normal_offset="0"
       tang_offset="0"
       prop_units="false"
       vertical_pattern="false"
       hide_knot="false"
       fuse_tolerance="0" />
    <inkscape:path-effect
       effect="skeletal"
       id="path-effect6240"
       is_visible="true"
       lpeversion="1"
       pattern="m 2063.5796,-317.32159 v -0.0374 H 337.25362 v 0 0.0374 z m -1727.86036,0 v -0.0374 0 h -16.65993 v 0 0.0374 z m -21.95306,0 v -0.0374 H 298.5343 v 0 0.0374 z m -24.28372,0 v -0.0374 0 h -13.80391 v 0 0.0374 z m -26.61443,0 v -0.0374 H 250.4921 v 0 0.0374 z m -28.94519,0 v -0.0374 0 h -10.94793 v 0 0.0374 z m -31.27586,0 v -0.0374 0 h -9.51995 v 0 0.0374 z m -33.60657,0 v -0.0374 h -8.09196 v 0 0.0374 z m -35.9373,0 v -0.0374 h -6.66394 v 0 0.0374 z m -38.267999,0 v -0.0374 0 h -5.235946 v 0 0.0374 z m -40.598732,0 v -0.0374 h -3.80797 v 0 0.0374 0 z m -42.929424,0 v -0.0374 H 8.9269807 v 0 0.0374 0 z m -45.260118,0 v -0.0374 h -0.951977 v 0 0.0374 0 z"
       copytype="single_stretched"
       prop_scale="-379.00718"
       scale_y_rel="false"
       spacing="0"
       normal_offset="0"
       tang_offset="0"
       prop_units="false"
       vertical_pattern="false"
       hide_knot="false"
       fuse_tolerance="0" />
    <inkscape:path-effect
       effect="skeletal"
       id="path-effect1034"
       is_visible="true"
       lpeversion="1"
       pattern="m -2.64762e-5,-96.100404 v -0.121134 H 430.51956 v 5e-6 0.121129 z m 430.9022464762,0 v -0.121134 0 h 4.15473 v 0 0.121134 z m 5.47476,0 v -0.121134 h 3.7986 v 0 0.121134 z m 6.05599,0 v -0.121134 0 h 3.44249 v 0 0.121134 z m 6.63724,0 v -0.121134 h 3.08637 v 0 0.121134 z m 7.21849,0 v -0.121134 0 h 2.73025 v 0 0.121134 z m 7.79973,0 v -0.121134 0 h 2.37413 v 0 0.121134 z m 8.38097,0 v -0.121134 h 2.01801 v 0 0.121134 z m 8.96222,0 v -0.121134 h 1.66189 v 0 0.121134 z m 9.54346,0 v -0.121134 0 h 1.30577 v 0 0.121134 z m 10.12471,0 v -0.121134 h 0.94965 v 0 0.121134 0 z m 10.70595,0 v -0.121134 h 0.59353 v 0 0.121134 0 z m 11.28719,0 v -0.121134 h 0.23741 v 0 0.121134 0 z"
       copytype="single_stretched"
       prop_scale="-11.038868"
       scale_y_rel="false"
       spacing="0"
       normal_offset="0"
       tang_offset="0"
       prop_units="false"
       vertical_pattern="false"
       hide_knot="false"
       fuse_tolerance="0" />
    <linearGradient
       inkscape:collect="always"
       id="linearGradient1354-3-6-7">
      <stop
         style="stop-color:#0d47a1;stop-opacity:1"
         offset="0"
         id="stop1350" />
      <stop
         style="stop-color:#1565c0;stop-opacity:1"
         offset="0.32327074"
         id="stop2132" />
      <stop
         style="stop-color:#1976d2;stop-opacity:1"
         offset="0.56652462"
         id="stop2198" />
      <stop
         style="stop-color:#1e88e5;stop-opacity:1"
         offset="0.81014895"
         id="stop2264" />
      <stop
         style="stop-color:#2196f3;stop-opacity:1"
         offset="1"
         id="stop1352" />
    </linearGradient>
    <linearGradient
       inkscape:collect="always"
       xlink:href="#linearGradient1354-3-6-7"
       id="linearGradient1356"
       x1="4017.9204"
       y1="-1403.4235"
       x2="5496.0093"
       y2="-2628.9314"
       gradientUnits="userSpaceOnUse"
       gradientTransform="matrix(2.3723495,0,0,2.3723495,-9016.498,6770.887)" />
  </defs>
  <sodipodi:namedview
     id="namedview4"
     pagecolor="#ffffff"
     bordercolor="#666666"
     borderopacity="1.0"
     inkscape:pageshadow="2"
     inkscape:pageopacity="0.0"
     inkscape:pagecheckerboard="0"
     showgrid="false"
     inkscape:snap-global="true"
     showguides="true"
     inkscape:guide-bbox="true"
     inkscape:snap-bbox="true"
     inkscape:object-paths="true"
     inkscape:snap-object-midpoints="true"
     inkscape:snap-center="true"
     inkscape:snap-page="true"
     inkscape:snap-grids="false"
     inkscape:zoom="0.04"
     inkscape:cx="125"
     inkscape:cy="4962.5"
     inkscape:window-width="1364"
     inkscape:window-height="707"
     inkscape:window-x="0"
     inkscape:window-y="0"
     inkscape:window-maximized="1"
     inkscape:current-layer="svg2"
     inkscape:bbox-paths="true"
     inkscape:bbox-nodes="true"
     inkscape:snap-intersection-paths="true"
     inkscape:snap-others="true"
     fit-margin-top="0"
     fit-margin-left="0"
     fit-margin-right="0"
     fit-margin-bottom="0"
     inkscape:snap-nodes="true">
    <sodipodi:guide
       position="468.5332,1463.2316"
       orientation="0,-1"
       id="guide62396" />
    <sodipodi:guide
       position="577.3881,799.07887"
       orientation="0,-1"
       id="guide62398" />
    <sodipodi:guide
       position="-1519.3212,1143.3158"
       orientation="0,-1"
       id="guide62537" />
    <sodipodi:guide
       position="468.5332,885.86227"
       orientation="1,0"
       id="guide62541" />
    <sodipodi:guide
       position="4232.3188,1399.1992"
       orientation="1,0"
       id="guide62790" />
    <sodipodi:guide
       position="4700.8522,5.7106808e-07"
       orientation="0,-1"
       id="guide62792" />
    <sodipodi:guide
       position="4979.5883,1771.5865"
       orientation="0,-1"
       id="guide62794" />
    <sodipodi:guide
       position="3200.5825,4992.4828"
       orientation="0,-1"
       id="guide62796" />
    <sodipodi:guide
       position="4.3439952e-15,799.07871"
       orientation="1,0"
       id="guide62800" />
    <sodipodi:guide
       position="4700.8522,1931.7647"
       orientation="1,0"
       id="guide62988" />
    <sodipodi:guide
       position="1751.8054,1265.7565"
       orientation="1,0"
       id="guide1095" />
    <sodipodi:guide
       position="3838.7335,1457.8603"
       orientation="1,0"
       id="guide1097" />
    <sodipodi:guide
       position="4232.3188,5461.016"
       orientation="0,-1"
       id="guide1203" />
    <sodipodi:guide
       position="1283.2722,1265.7565"
       orientation="1,0"
       id="guide1498" />
    <sodipodi:guide
       position="3530.3786,1457.8603"
       orientation="1,0"
       id="guide864" />
    <sodipodi:guide
       position="3169.3754,662.59601"
       orientation="0,-1"
       id="guide1253" />
    <sodipodi:guide
       position="3169.3753,468.5334"
       orientation="0,-1"
       id="guide1255" />
  </sodipodi:namedview>
  <path
     id="bg"
     style="fill:#ffffff;stroke-width:18.628;stroke-linecap:round;stroke-linejoin:round;paint-order:fill markers stroke"
     d="m 0,0 4700.8525,0 -2e-4,5461.0161 H 0 Z"
     inkscape:export-filename="/root/my-documents/downloads/movisoft/mic/logo/vert/logo-vert-low-124,3x135,7.png"
     inkscape:export-xdpi="300"
     inkscape:export-ydpi="300"
     sodipodi:nodetypes="ccccc" />
  <path
     id="path1248"
     style="fill:url(#linearGradient1356);fill-opacity:1;stroke:none;stroke-width:11.8013;stroke-linecap:round;stroke-linejoin:round;stroke-opacity:1;paint-order:fill markers stroke"
     d="m 3210.4818,924.57493 c -122.6208,-17.2899 -264.5018,-14.3112 -457.8265,49.6366 469.2024,-53.0459 450.8617,293.05717 310.0784,550.18117 113.2657,-263.2138 52.3691,-450.8544 -191.017,-462.2046 -159.5054,-7.4387 -386.5732,63.0374 -610.9199,202.6525 146.3182,-67.6862 261.0277,-99.5462 354.9813,-95.1582 166.1491,7.7592 228.2789,113.6858 190.331,271.9817 27.3444,-128.6562 -24.8297,-200.737 -163.407,-220.5744 -138.1457,-11.8995 -405.532,57.5779 -703.3485,314.2742 243.9361,-169.6233 410.9147,-218.6403 506.7624,-214.0249 76.8002,3.6981 120.6726,38.0286 132.7203,93.6725 -13.1314,-41.5623 -49.6905,-66.9832 -110.4318,-69.9089 -145.3592,-6.9991 -508.9371,172.4637 -695.9305,408.777 217.2458,-210.555 408.7471,-297.2013 528.2354,-301.459 l 1.7618,2.2588 c -123.4913,5.3335 -340.7634,142.8244 -475.0039,294.1955 -134.2406,151.3699 -153.0582,273.9819 -37.2662,279.5577 115.7926,5.5757 313.7863,-123.3079 447.5405,-262.0901 119.4829,-130.8092 171.6454,-225.0663 147.3146,-291.1122 47.3841,59.3426 -6.6893,186.4655 -101.232,293.5012 -163.3241,184.9059 -350.5291,307.6235 -530.7316,350.7229 166.4137,28.0519 454.8437,-155.2437 657.6334,-385.1085 54.229,-64.8449 94.4939,-124.5866 158.7683,-230.3587 -11.5714,69.5915 -69.7404,171.3641 -135.8789,256.8375 -205.5426,265.6296 -593.4481,524.3253 -836.7624,518.1446 -26.0139,-1.2528 -48.1812,-6.0787 -66.6831,-13.9988 26.1852,42.3799 72.0228,73.4601 147.9057,71.4528 244.0932,-6.4568 618.7745,-230.835 903.6776,-546.6197 70.1012,-81.0529 130.8638,-158.6772 166.434,-229.3109 -41.9673,86.5597 -98.5811,182.415 -185.3165,282.7006 -314.6545,363.8118 -799.586,657.3736 -1086.5603,643.9724 -113.8695,-5.3171 -178.835,-56.7943 -196.3416,-139.5392 -25.0681,165.2671 52.2724,273.6543 235.3831,282.1934 341.9196,15.9457 931.6623,-319.087 1306.2157,-751.9741 66.6903,-77.0762 130.2643,-153.7192 170.8274,-226.0309 -61.9774,104.7514 -118.8813,193.4281 -213.3957,299.541 -440.8855,494.9881 -1082.8329,838.1089 -1440.972,792.1792 -226.7105,-29.0738 -335.4894,-223.1764 -167.7749,-546.2356 -351.67101,490.679 -280.24382,891.9823 61.6272,923.6674 203.2079,18.8337 811.3588,-186.9658 1313.9749,-550.0728 C 1933.4178,3056.2829 1328.1161,3233.3005 1095.821,3202.1497 697.24519,3148.7002 652.27093,2763.9575 1065.0659,2130.0477 477.83464,2858.483 374.0752,3550.8098 883.65332,3689.4296 375.40755,3611.5907 351.95283,3107.6806 714.58589,2480.2992 832.32702,2276.5991 991.02698,2065.1623 1181.6247,1858.0603 1566.554,1439.7992 2059.2005,1061.0278 2549.1258,811.41043 c 489.9245,-249.6181 994.463,-392.3595 1302.3909,-327.1111 307.9263,65.2477 422.7641,337.8869 367.3868,675.02987 -56.2579,342.5046 -273.6889,748.705 -669.7551,1190.7567 -674.7353,770.3003 -1669.3692,1318.7436 -2324.9102,1339.305 600.8884,-91.8016 1415.3426,-573.0747 1975.9234,-1210.9203 535.2493,-610.3614 776.186,-1334.5403 406.5728,-1568.07257 73.7819,105.74887 82.2119,623.53257 -654.5745,1310.42117 733.2841,-789.0124 583.4063,-1250.40597 258.3219,-1296.24427 z"
     sodipodi:nodetypes="sccscscccscscccssccscccsccsccsscsscsscscsccssssscccccs" />
  <g
     id="logotipo"
     transform="matrix(1.0106766,0,0,1.0106766,-1930.1041,2694.0852)">
    <g
       aria-label="MoviSoft"
       transform="matrix(1.015308,0,0,0.98492281,0.67258426,419.08631)"
       id="text2809"
       style="font-weight:bold;font-size:899.693px;line-height:0.85;font-family:Lato;-inkscape-font-specification:'Lato Bold';letter-spacing:0px;stroke-width:1.03811">
      <path
         d="m 3042.2128,900.81384 v 650.47806 h -106.6136 v -420.1567 q 0,-25.1914 2.6991,-54.4314 l -196.5829,369.324 q -13.9453,26.5409 -42.7355,26.5409 h -17.0941 q -28.7902,0 -42.7354,-26.5409 l -198.8322,-370.6735 q 1.3495,14.8449 2.2492,29.24 0.8997,14.3951 0.8997,26.5409 v 420.1567 H 2336.8535 V 900.81384 h 91.3188 q 8.0973,0 13.9453,0.44984 5.848,0.44985 10.3465,2.24924 4.9483,1.79938 8.547,5.848 4.0487,4.04862 7.6474,10.79632 l 194.7836,361.22676 q 7.6474,14.3951 13.9452,29.6898 6.7477,15.2948 13.0456,31.4893 6.2978,-16.6443 13.0455,-31.9391 6.7477,-15.7446 14.3951,-30.1397 l 192.0844,-360.32706 q 3.5988,-6.7477 7.6474,-10.79632 4.0487,-4.04862 8.5471,-5.848 4.9483,-1.79939 10.7963,-2.24924 5.848,-0.44984 13.9453,-0.44984 z"
         id="path25142"
         style="fill:#1a1a1a;fill-opacity:1" />
      <path
         d="m 3359.8032,1082.5518 q 51.2825,0 93.1183,16.6443 42.2855,16.6444 71.9754,47.2339 30.1397,30.5896 46.3342,74.6745 16.1945,44.085 16.1945,98.5164 0,54.8813 -16.1945,98.9663 -16.1945,44.0849 -46.3342,75.1243 -29.6899,31.0394 -71.9754,47.6837 -41.8358,16.6444 -93.1183,16.6444 -51.7323,0 -94.0179,-16.6444 -42.2856,-16.6443 -72.4253,-47.6837 -29.6898,-31.0394 -46.3342,-75.1243 -16.1944,-44.085 -16.1944,-98.9663 0,-54.4314 16.1944,-98.5164 16.6444,-44.0849 46.3342,-74.6745 30.1397,-30.5895 72.4253,-47.2339 42.2856,-16.6443 94.0179,-16.6443 z m 0,390.0169 q 57.5804,0 85.021,-38.6868 27.8905,-38.6868 27.8905,-113.3613 0,-74.6745 -27.8905,-113.8111 -27.4406,-39.1367 -85.021,-39.1367 -58.48,0 -86.8203,39.5865 -27.8905,39.1366 -27.8905,113.3613 0,74.2247 27.8905,113.3613 28.3403,38.6868 86.8203,38.6868 z"
         id="path25144"
         style="fill:#1a1a1a;fill-opacity:1" />
      <path
         d="m 4074.158,1089.7494 -183.0875,461.5425 h -100.7657 l -183.0875,-461.5425 h 91.7687 q 12.5957,0 20.6929,5.848 8.5471,5.848 11.2462,14.8449 l 89.0696,246.5159 q 7.1976,21.5926 12.5957,42.2856 5.3982,20.6929 9.4468,41.3858 4.4985,-20.6929 9.8966,-41.3858 5.3982,-20.693 13.0456,-42.2856 l 90.869,-246.5159 q 3.1489,-8.9969 11.2461,-14.8449 8.0973,-5.848 19.3434,-5.848 z"
         id="path25146"
         style="fill:#1a1a1a;fill-opacity:1" />
      <path
         d="m 4723.2856,1019.1235 q -5.3982,9.4467 -11.696,13.9452 -5.848,4.0486 -14.8449,4.0486 -9.4468,0 -20.693,-6.7477 -10.7963,-7.1975 -26.0911,-15.7446 -15.2948,-8.5471 -35.9877,-15.29478 -20.2431,-7.19755 -48.1336,-7.19755 -25.1914,0 -44.0849,6.29786 -18.8936,5.84797 -31.9391,16.64427 -12.5957,10.7964 -18.8936,26.0911 -6.2978,14.845 -6.2978,32.8388 0,22.9422 12.5957,38.237 13.0455,15.2948 34.1883,26.0911 21.1428,10.7963 48.1336,19.3434 26.9908,8.5471 55.3311,18.4437 28.3403,9.4468 55.3311,22.4923 26.9908,12.5957 48.1336,32.389 21.1428,19.3434 33.7385,47.6837 13.0455,28.3403 13.0455,68.8265 0,44.085 -15.2948,82.7718 -14.8449,38.2369 -44.0849,67.0271 -28.7902,28.3403 -70.6259,44.9846 -41.8357,16.1945 -95.8173,16.1945 -31.0394,0 -61.1791,-6.2978 -30.1398,-5.848 -58.0302,-17.0942 -27.4407,-11.2462 -51.7324,-26.9908 -24.2917,-15.7446 -43.1852,-35.088 l 35.5378,-58.0302 q 4.4985,-6.2979 11.696,-10.3465 7.1976,-4.4985 15.2948,-4.4985 11.2462,0 24.2917,9.4468 13.0456,8.997 31.0394,20.2431 17.9939,11.2462 41.8358,20.693 24.2917,8.9969 58.0302,8.9969 51.7323,0 80.0726,-24.2917 28.3404,-24.7416 28.3404,-70.6259 0,-25.6413 -13.0456,-41.8358 -12.5957,-16.1944 -33.7385,-26.9907 -21.1428,-11.2462 -48.1335,-18.8936 -26.9908,-7.6474 -54.8813,-16.6443 -27.8905,-8.9969 -54.8813,-21.5926 -26.9908,-12.5957 -48.1336,-32.8388 -21.1428,-20.2431 -34.1883,-50.3828 -12.5957,-30.5896 -12.5957,-75.1244 0,-35.5379 13.9452,-69.2764 14.3951,-33.73846 41.3859,-59.82956 26.9908,-26.09109 66.5773,-41.83572 39.5865,-15.74463 90.869,-15.74463 57.5803,0 106.1638,17.99386 48.5834,17.99386 82.7717,50.38281 z"
         id="path25150"
         style="fill:#0d47a1" />
      <path
         d="m 5055.7195,1082.5518 q 51.2825,0 93.1182,16.6443 42.2856,16.6444 71.9755,47.2339 30.1397,30.5896 46.3341,74.6745 16.1945,44.085 16.1945,98.5164 0,54.8813 -16.1945,98.9663 -16.1944,44.0849 -46.3341,75.1243 -29.6899,31.0394 -71.9755,47.6837 -41.8357,16.6444 -93.1182,16.6444 -51.7324,0 -94.0179,-16.6444 -42.2856,-16.6443 -72.4253,-47.6837 -29.6899,-31.0394 -46.3342,-75.1243 -16.1945,-44.085 -16.1945,-98.9663 0,-54.4314 16.1945,-98.5164 16.6443,-44.0849 46.3342,-74.6745 30.1397,-30.5895 72.4253,-47.2339 42.2855,-16.6443 94.0179,-16.6443 z m 0,390.0169 q 57.5803,0 85.021,-38.6868 27.8905,-38.6868 27.8905,-113.3613 0,-74.6745 -27.8905,-113.8111 -27.4407,-39.1367 -85.021,-39.1367 -58.4801,0 -86.8204,39.5865 -27.8905,39.1366 -27.8905,113.3613 0,74.2247 27.8905,113.3613 28.3403,38.6868 86.8204,38.6868 z"
         id="path25152"
         style="fill:#1565c0" />
      <path
         d="m 5692.0879,1093.798 h 71.9754 l 23.8419,-126.40688 c 1.4995,-5.99795 4.3485,-10.64637 8.547,-13.94524 4.1986,-3.29888 9.5968,-4.94832 16.1945,-4.94832 h 57.5804 V 1093.798 h 123.2579 v 79.173 h -123.2579 v 250.1146 c 0,14.3951 3.5988,25.6413 10.7963,33.7385 7.1975,8.0973 16.7943,12.1459 28.7902,12.1459 6.8976,0 12.5956,-0.7498 17.0941,-2.2493 4.7984,-1.7994 8.847,-3.5988 12.1459,-5.3981 3.5987,-1.7994 6.7477,-3.4488 9.4468,-4.9483 2.6991,-1.7994 5.3981,-2.6991 8.0972,-2.6991 3.2989,0 5.9979,0.8997 8.0972,2.6991 2.0993,1.4995 4.3486,3.8986 6.7477,7.1975 l 33.2887,53.9816 c -16.1945,13.4954 -34.7881,23.6919 -55.781,30.5895 -20.6929,6.8977 -42.2856,10.3465 -64.7779,10.3465 -40.1863,0 -71.0757,-11.2462 -92.6684,-33.7385 -21.5926,-22.7922 -32.3889,-54.1315 -32.3889,-94.0179 v -257.762 h -67.0271 z"
         id="path26154"
         sodipodi:nodetypes="cccsscccccssscccsccccscsccc"
         style="fill:#1e88e5" />
      <path
         d="m 5621.1751,1172.971 h -120.5589 v 378.3209 h -111.1121 v -377.8711 l -40.0363,-6.2978 c -8.6971,-1.7994 -15.7447,-4.7984 -21.1428,-8.997 -5.0983,-4.4985 -7.6474,-10.7963 -7.6474,-18.8935 v -45.4345 h 68.8265 v -34.1884 c 0,-26.3909 3.8987,-50.0828 11.696,-71.0757 8.0973,-20.99283 19.4934,-38.83674 34.1883,-53.53173 14.9949,-14.69499 33.1388,-25.94115 54.4315,-33.73849 21.2927,-7.79734 45.2845,-11.69601 71.9754,-11.69601 21.2927,0 41.086,2.84903 59.3798,8.54709 l -0.1089,55.18269 c 0.1706,7.71151 -8.5375,14.35058 -14.2862,16.79275 -3.2989,1.19959 -7.1975,2.09928 -11.696,2.69908 -4.4985,0.29989 -9.2968,0.44984 -14.3951,0.44984 -13.1955,0 -25.0415,1.49949 -35.5379,4.49847 -10.1965,2.69908 -18.8936,7.64739 -26.0911,14.84493 -7.1975,6.89765 -12.7456,16.19448 -16.6443,27.89048 -3.5988,11.3961 -5.3982,25.6413 -5.3982,42.7354 v 30.5896 h 124.1577 z"
         id="path25154"
         sodipodi:nodetypes="cccccccsccsccssccccscccsccc"
         style="fill:#1976d2" />
    </g>
    <path
       id="path25472"
       style="fill:#1a1a1a;fill-opacity:1;stroke-width:6.0874;stroke-linecap:round;stroke-linejoin:round;paint-order:fill markers stroke"
       d="m 4327.3184,1359.9273 c 0,38.66 -31.34,70 -70,70 -38.6599,0 -70,-31.34 -70,-70 0,-38.6599 31.3401,-70 70,-70 38.66,0 70,31.3401 70,70 z m -13.3651,132.4781 v 454.5837 h -113.2697 v -454.5837 z" />
  </g>
  <g
     aria-label="su mejor aliado"
     id="text15321"
     style="font-weight:bold;font-size:198.516px;line-height:0.85;font-family:'DejaVu Sans';-inkscape-font-specification:'DejaVu Sans Bold';text-align:center;letter-spacing:0px;text-anchor:middle;fill:#1a1a1a;stroke-width:1.03394"
     transform="matrix(1.0104017,0,0,1.0020304,-1715.209,3355.7725)">
    <path
       d="m 4272.2898,1485.3792 v 26.3654 q -11.1472,-4.6527 -21.5189,-6.9791 -10.3717,-2.3263 -19.5802,-2.3263 -9.887,0 -14.7336,2.5202 -4.7496,2.4233 -4.7496,7.5607 0,4.168 3.5864,6.3975 3.6834,2.2294 13.0858,3.2956 l 6.1067,0.8724 q 26.6562,3.3926 35.8647,11.1472 9.2085,7.7545 9.2085,24.3298 0,17.3508 -12.795,26.0746 -12.7949,8.7239 -38.191,8.7239 -10.7594,0 -22.2943,-1.7448 -11.4379,-1.6478 -23.5544,-5.0404 v -26.3655 q 10.3717,5.0405 21.228,7.5607 10.9533,2.5202 22.1974,2.5202 10.1778,0 15.3152,-2.811 5.1374,-2.811 5.1374,-8.3361 0,-4.6527 -3.5865,-6.8822 -3.4895,-2.3263 -14.0551,-3.5864 l -6.1067,-0.7755 q -23.1666,-2.9079 -32.4721,-10.7594 -9.3054,-7.8515 -9.3054,-23.8452 0,-17.2538 11.8256,-25.5899 11.8257,-8.3361 36.2525,-8.3361 9.5962,0 20.1618,1.4539 10.5655,1.454 22.9728,4.5558 z"
       id="path34291" />
    <path
       d="m 4304.4711,1548.2879 v -66.3013 h 34.8954 v 10.8564 q 0,8.8207 -0.097,22.1973 -0.097,13.2796 -0.097,17.7385 0,13.0858 0.6785,18.9017 0.6785,5.7189 2.3264,8.3361 2.1325,3.3926 5.5251,5.2343 3.4895,1.8417 7.9484,1.8417 10.8563,0 17.0599,-8.3361 6.2037,-8.3362 6.2037,-23.1667 v -53.6032 h 34.7015 V 1590.55 h -34.7015 v -15.7029 q -7.8515,9.4993 -16.6723,14.0551 -8.7238,4.4589 -19.2894,4.4589 -18.8047,0 -28.6917,-11.5349 -9.7901,-11.5349 -9.7901,-33.5383 z"
       id="path34293" />
    <path
       d="m 4616.6879,1500.0159 q 6.5913,-10.0809 15.606,-15.3152 9.1115,-5.3312 19.9679,-5.3312 18.7078,0 28.4979,11.5348 9.7901,11.5349 9.7901,33.5384 v 66.1073 h -34.8954 v -56.608 q 0.097,-1.2601 0.097,-2.6172 0.097,-1.357 0.097,-3.8773 0,-11.5348 -3.3926,-16.6722 -3.3927,-5.2343 -10.9533,-5.2343 -9.887,0 -15.3152,8.1423 -5.3313,8.1422 -5.5251,23.5543 v 53.3124 h -34.8954 v -56.608 q 0,-18.0293 -3.1018,-23.1667 -3.1018,-5.2343 -11.0502,-5.2343 -9.984,0 -15.4122,8.2392 -5.4281,8.1422 -5.4281,23.3605 v 53.4093 h -34.8954 v -108.5634 h 34.8954 v 15.8968 q 6.3974,-9.2085 14.6366,-13.8612 8.3362,-4.6527 18.3201,-4.6527 11.2441,0 19.871,5.4281 8.6269,5.4282 13.0858,15.2183 z"
       id="path34295" />
    <path
       d="m 4831.2945,1535.9775 v 9.8871 h -81.1318 q 1.2601,12.2133 8.8208,18.32 7.5607,6.1067 21.1311,6.1067 10.9533,0 22.3912,-3.1987 11.5349,-3.2957 23.6513,-9.887 v 26.7531 q -12.3103,4.6527 -24.6206,6.9791 -12.3103,2.4233 -24.6206,2.4233 -29.4673,0 -45.8487,-14.9275 -16.2845,-15.0244 -16.2845,-42.0683 0,-26.5593 15.9937,-41.7776 16.0907,-15.2182 44.2008,-15.2182 25.59,0 40.9052,15.4121 15.4121,15.4121 15.4121,41.1959 z m -35.6708,-11.5348 q 0,-9.8871 -5.8159,-15.8968 -5.719,-6.1067 -15.0244,-6.1067 -10.0809,0 -16.3815,5.719 -6.3005,5.622 -7.8514,16.2845 z"
       id="path34297" />
    <path
       d="m 4857.563,1481.9866 h 34.7015 v 106.6248 q 0,21.8096 -10.4686,33.2476 -10.4686,11.5348 -30.3396,11.5348 h -17.1569 v -22.7789 h 6.0098 q 9.887,0 13.5704,-4.4589 3.6834,-4.4588 3.6834,-17.5446 z m 0,-42.2622 h 34.7015 v 28.3041 h -34.7015 z"
       id="path34299" />
    <path
       d="m 4977.2736,1504.184 q -11.5349,0 -17.6416,8.3361 -6.0097,8.2392 -6.0097,23.8452 0,15.606 6.0097,23.9421 6.1067,8.2392 17.6416,8.2392 11.341,0 17.3508,-8.2392 6.0097,-8.3361 6.0097,-23.9421 0,-15.606 -6.0097,-23.8452 -6.0098,-8.3361 -17.3508,-8.3361 z m 0,-24.8145 q 28.0132,0 43.7162,15.1213 15.7998,15.1213 15.7998,41.8745 0,26.7531 -15.7998,41.8744 -15.703,15.1214 -43.7162,15.1214 -28.1102,0 -44.007,-15.1214 -15.7998,-15.1213 -15.7998,-41.8744 0,-26.7532 15.7998,-41.8745 15.8968,-15.1213 44.007,-15.1213 z"
       id="path34301" />
    <path
       d="m 5142.639,1511.5508 q -4.5558,-2.1325 -9.1116,-3.1019 -4.4589,-1.0662 -9.0147,-1.0662 -13.3765,0 -20.6464,8.6269 -7.1729,8.53 -7.1729,24.5237 v 50.0167 h -34.7016 v -108.5634 h 34.7016 v 17.8354 q 6.6882,-10.6625 15.3152,-15.509 8.7238,-4.9435 20.8403,-4.9435 1.7447,0 3.7803,0.1938 2.0356,0.097 5.9128,0.5816 z"
       id="path34303" />
    <path
       d="m 5277.6648,1541.6965 q -10.8564,0 -16.3815,3.6834 -5.4282,3.6834 -5.4282,10.8563 0,6.5914 4.362,10.3717 4.4588,3.6834 12.3103,3.6834 9.7901,0 16.4784,-6.979 6.6883,-7.0761 6.6883,-17.6416 v -3.9742 z m 53.0216,-13.0858 v 61.9393 h -34.9923 v -16.0906 q -6.9791,9.887 -15.703,14.4428 -8.7238,4.4589 -21.228,4.4589 -16.8661,0 -27.4317,-9.7901 -10.4686,-9.8871 -10.4686,-25.59 0,-19.0955 13.0858,-28.0132 13.1827,-8.9177 41.2929,-8.9177 h 20.4526 v -2.7141 q 0,-8.2392 -6.4945,-12.0195 -6.4944,-3.8773 -20.2587,-3.8773 -11.1471,0 -20.7434,2.2294 -9.5962,2.2294 -17.8354,6.6883 v -26.4623 q 11.1472,-2.7141 22.3912,-4.0712 11.2441,-1.4539 22.4882,-1.4539 29.3703,0 42.3591,11.6318 13.0858,11.5348 13.0858,37.6094 z"
       id="path34305" />
    <path
       d="m 5362.9646,1439.7244 h 34.7015 V 1590.55 h -34.7015 z"
       id="path34307" />
    <path
       d="m 5431.0106,1481.9866 h 34.7015 V 1590.55 h -34.7015 z m 0,-42.2622 h 34.7015 v 28.3041 h -34.7015 z"
       id="path34309" />
    <path
       d="m 5547.7163,1541.6965 q -10.8564,0 -16.3815,3.6834 -5.4281,3.6834 -5.4281,10.8563 0,6.5914 4.3619,10.3717 4.4588,3.6834 12.3103,3.6834 9.7901,0 16.4784,-6.979 6.6883,-7.0761 6.6883,-17.6416 v -3.9742 z m 53.0216,-13.0858 v 61.9393 h -34.9923 v -16.0906 q -6.9791,9.887 -15.703,14.4428 -8.7238,4.4589 -21.228,4.4589 -16.8661,0 -27.4316,-9.7901 -10.4687,-9.8871 -10.4687,-25.59 0,-19.0955 13.0858,-28.0132 13.1827,-8.9177 41.2929,-8.9177 h 20.4526 v -2.7141 q 0,-8.2392 -6.4945,-12.0195 -6.4944,-3.8773 -20.2587,-3.8773 -11.1471,0 -20.7433,2.2294 -9.5963,2.2294 -17.8355,6.6883 v -26.4623 q 11.1472,-2.7141 22.3912,-4.0712 11.2441,-1.4539 22.4882,-1.4539 29.3703,0 42.3591,11.6318 13.0858,11.5348 13.0858,37.6094 z"
       id="path34311" />
    <path
       d="m 5706.8781,1497.8834 v -58.159 h 34.8954 V 1590.55 h -34.8954 v -15.7029 q -7.1729,9.5963 -15.7999,14.0551 -8.6269,4.4589 -19.9679,4.4589 -20.0648,0 -32.9567,-15.8968 -12.8919,-15.9937 -12.8919,-41.099 0,-25.1053 12.8919,-41.0021 12.8919,-15.9937 32.9567,-15.9937 11.2441,0 19.871,4.5557 8.7239,4.4589 15.8968,13.9582 z m -22.8759,70.2754 q 11.1472,0 16.9631,-8.1422 5.9128,-8.1423 5.9128,-23.6513 0,-15.5091 -5.9128,-23.6514 -5.8159,-8.1422 -16.9631,-8.1422 -11.0502,0 -16.963,8.1422 -5.8159,8.1423 -5.8159,23.6514 0,15.509 5.8159,23.6513 5.9128,8.1422 16.963,8.1422 z"
       id="path34313" />
    <path
       d="m 5826.7826,1504.184 q -11.5349,0 -17.6416,8.3361 -6.0098,8.2392 -6.0098,23.8452 0,15.606 6.0098,23.9421 6.1067,8.2392 17.6416,8.2392 11.341,0 17.3507,-8.2392 6.0098,-8.3361 6.0098,-23.9421 0,-15.606 -6.0098,-23.8452 -6.0097,-8.3361 -17.3507,-8.3361 z m 0,-24.8145 q 28.0132,0 43.7161,15.1213 15.7999,15.1213 15.7999,41.8745 0,26.7531 -15.7999,41.8744 -15.7029,15.1214 -43.7161,15.1214 -28.1102,0 -44.007,-15.1214 -15.7999,-15.1213 -15.7999,-41.8744 0,-26.7532 15.7999,-41.8745 15.8968,-15.1213 44.007,-15.1213 z"
       id="path34315" />
  </g>
</svg>
